<svg  viewBox="0 0 744 163" fill="none" xmlns="http://www.w3.org/2000/svg">
<path d="M718.327 12.9086C718.327 5.85159 724.047 0.131592 731.103 0.131592C738.16 0.131592 743.88 5.85159 743.88 12.9086C743.88 14.1716 743.694 15.3906 743.353 16.5456C741.534 23.9026 731.046 32.1316 731.046 32.1316C731.046 32.1316 719.197 22.8406 718.5 15.1736L718.531 15.1676C718.399 14.4356 718.327 13.6806 718.327 12.9086ZM730.929 15.7546C733.816 15.7546 736.156 13.4136 736.156 10.5266C736.156 7.63959 733.816 5.29959 730.929 5.29959C728.043 5.29959 725.703 7.63959 725.703 10.5266C725.703 13.4136 728.043 15.7546 730.929 15.7546Z" fill="#4B9200"/>
<path d="M116.054 57.9234C116.054 50.8664 121.774 45.1464 128.83 45.1464C135.887 45.1464 141.607 50.8664 141.607 57.9234C141.607 59.1864 141.421 60.4054 141.08 61.5604C139.261 68.9174 128.773 77.1464 128.773 77.1464C128.773 77.1464 116.924 67.8554 116.227 60.1884L116.258 60.1824C116.126 59.4504 116.054 58.6954 116.054 57.9234ZM128.656 60.7694C131.543 60.7694 133.883 58.4284 133.883 55.5414C133.883 52.6544 131.543 50.3144 128.656 50.3144C125.77 50.3144 123.43 52.6544 123.43 55.5414C123.43 58.4284 125.77 60.7694 128.656 60.7694Z" fill="#4B9200"/>
<path d="M713 59.777C713 52.72 718.72 47 725.776 47C732.833 47 738.553 52.72 738.553 59.777C738.553 61.04 738.367 62.259 738.026 63.414C736.207 70.771 725.719 79 725.719 79C725.719 79 713.87 69.709 713.173 62.042L713.204 62.036C713.072 61.304 713 60.549 713 59.777ZM725.602 62.623C728.489 62.623 730.829 60.282 730.829 57.395C730.829 54.508 728.489 52.168 725.602 52.168C722.716 52.168 720.376 54.508 720.376 57.395C720.376 60.282 722.716 62.623 725.602 62.623Z" fill="#4B9200"/>
<path d="M406 143.777C406 136.72 411.72 131 418.776 131C425.833 131 431.553 136.72 431.553 143.777C431.553 145.04 431.367 146.259 431.026 147.414C429.207 154.771 418.719 163 418.719 163C418.719 163 406.87 153.709 406.173 146.042L406.204 146.036C406.072 145.304 406 144.549 406 143.777ZM418.602 146.623C421.489 146.623 423.829 144.282 423.829 141.395C423.829 138.508 421.489 136.168 418.602 136.168C415.716 136.168 413.376 138.508 413.376 141.395C413.376 144.282 415.716 146.623 418.602 146.623Z" fill="#4B9200"/>
<path d="M0.0556641 40.9303C0.0556641 33.8733 5.77566 28.1533 12.8317 28.1533C19.8887 28.1533 25.6087 33.8733 25.6087 40.9303C25.6087 42.1933 25.4227 43.4123 25.0817 44.5673C23.2627 51.9243 12.7747 60.1533 12.7747 60.1533C12.7747 60.1533 0.925664 50.8623 0.228664 43.1953L0.259664 43.1893C0.127664 42.4573 0.0556641 41.7023 0.0556641 40.9303ZM12.6577 43.7763C15.5447 43.7763 17.8847 41.4353 17.8847 38.5483C17.8847 35.6613 15.5447 33.3213 12.6577 33.3213C9.77166 33.3213 7.43166 35.6613 7.43166 38.5483C7.43166 41.4353 9.77166 43.7763 12.6577 43.7763Z" fill="#4B9200"/>
</svg>
