<svg width="69" height="30" viewBox="0 0 69 30" fill="none" xmlns="http://www.w3.org/2000/svg">
<path opacity="0.5" d="M34.1534 6.92752C34.1473 6.92752 34.1426 6.92752 34.1372 6.92676C34.5146 6.94354 34.6058 6.94736 34.1534 6.92752Z" fill="black"/>
<path d="M67.8488 18.6364C67.0392 18.3038 62.7929 16.09 61.0522 15.9649C59.3115 15.8398 59.7229 16.2914 58.1546 15.4126C56.5848 14.5338 56.5848 14.5338 56.5848 14.5338C56.5848 14.5338 57.3202 13.1538 57.6365 11.2902C57.9527 9.42661 58.2489 8.40517 58.2489 8.40517C58.2489 8.40517 61.0584 6.45612 62.5207 7.26778C63.9846 8.0802 63.9761 8.11682 64.7594 7.71404C65.5428 7.31126 64.7463 6.51486 64.7463 6.51486C64.7463 6.51486 65.3588 7.2838 65.7763 6.46527C65.9565 6.11131 66.4948 5.1982 65.4214 4.04097C64.0867 2.60226 64.9953 2.62514 64.3527 2.25135C63.7085 1.87603 62.1642 0.932403 60.9648 0.725674C59.7399 0.514368 59.7569 0.669224 58.9232 0.466309C58.6634 0.765341 59.3888 1.54878 59.3888 1.54878C59.3888 1.54878 57.208 1.47173 55.8834 2.16439C54.5602 2.85399 54.5757 3.00427 53.0175 3.69998C51.4592 4.39721 51.8521 3.71371 49.6713 4.48189C47.4906 5.25007 45.4243 7.20446 43.812 7.61868C41.4766 8.21827 32.5046 6.85966 34.1363 6.92602C33.0815 6.87949 29.7856 6.73227 29.7856 6.73227C24.8844 7.00384 23.0972 7.36084 17.292 12.407C11.4867 17.4532 9.21859 18.0566 5.09529 18.1382C0.971991 18.2214 2.68565 17.1336 1.01066 17.1015C-0.663565 17.0695 0.244303 17.9918 0.25745 18.6821C0.270596 19.3748 2.60059 20.114 5.33347 20.114C8.06713 20.114 12.2044 18.9979 19.2059 13.4231C21.3047 11.7525 22.5002 10.7906 23.1475 10.2612C22.9549 11.1575 21.5607 17.4669 20.2259 18.1039C18.7883 18.792 16.4901 19.6776 14.8452 20.8692C13.2004 22.0623 12.2059 25.4325 12.0799 26.4371C11.953 27.441 12.376 27.9407 12.9011 28.2741C13.4254 28.6067 13.6512 29.0773 14.4377 29.0773C15.2241 29.0773 14.7911 28.4358 14.5212 28.062C13.9667 27.2931 13.0318 26.4768 14.5599 24.5789C16.6927 21.928 19.4031 22.3079 22.5892 20.5961C25.7744 18.8858 30.1738 14.8092 30.1738 14.8092C30.1738 14.8092 32.5425 14.3248 34.5887 15.3218C36.6356 16.3196 38.2333 17.7187 41.2948 18.2412C44.3571 18.7615 52.3493 16.9032 52.3493 16.9032C52.3493 16.9032 53.5673 18.4975 55.7171 18.5975C57.8661 18.6974 59.6424 17.5219 60.599 17.7057C61.5572 17.8888 65.2536 18.6448 66.1769 19.2024C67.0995 19.7593 66.7816 21.0515 68.9183 20.114C69.2176 19.9805 68.6569 18.9674 67.8488 18.6364Z" fill="black"/>
<path opacity="0.5" d="M58.924 0.0091534L58.9216 0C58.9216 0 58.9232 0.00381353 58.924 0.0091534Z" fill="black"/>
<path d="M30.5534 15.5747C29.9378 16.1347 27.9311 17.9273 25.7913 19.4957C26.1718 20.4043 26.4672 21.2586 26.4726 21.7339C26.4896 23.091 24.2749 26.3704 24.2911 27.3972C24.3073 28.427 24.7551 28.8855 25.3235 29.4058C25.8926 29.926 26.4162 30.4814 26.577 29.2898C26.7379 28.099 25.7155 28.6002 25.7125 27.8908C25.7094 27.1813 26.6335 25.6366 27.372 24.7021C28.1105 23.7691 29.9603 22.1069 30.7676 20.6194C31.2556 19.7192 32.083 17.3331 32.6607 15.5862C32.2601 15.5267 31.8874 15.5068 31.578 15.5068C31.1341 15.5068 30.7699 15.545 30.5534 15.5747Z" fill="black"/>
<path d="M59.1443 18.8061C58.5442 18.9953 57.8412 19.2173 57.0579 19.3348C57.6912 19.7597 58.1691 20.1602 58.1946 20.4195C58.2758 21.2228 58.5156 21.5028 58.1946 21.8186C57.8745 22.1344 57.7067 22.1641 57.5234 22.4815C57.3394 22.7973 57.2829 23.7836 57.7593 23.8866C58.2348 23.9881 58.565 23.7585 58.7313 23.4037C58.8968 23.0475 59.7382 20.2349 59.7266 19.5377C59.7227 19.3561 59.5464 19.0769 59.2796 18.7642C59.2347 18.7779 59.1899 18.7909 59.1443 18.8061Z" fill="black"/>
</svg>
