<svg width="284" height="246" viewBox="0 0 284 246" fill="none" xmlns="http://www.w3.org/2000/svg">
<path d="M152.161 63.6032C152.161 63.6032 164.44 51.7077 175.449 47.7425C175.449 47.7425 149.621 12.3864 95.0002 0.821289C95.0002 0.821289 76.3699 12.056 72.9825 34.1948C72.9825 34.1948 58.5864 37.1687 58.5864 44.7687L75.9465 51.3773C75.9465 51.3773 108.973 46.4208 113.207 47.4121C117.441 48.4034 114.477 60.2989 110.667 62.2815C110.667 62.2815 111.937 66.2467 114.477 67.8988C114.477 67.8988 106.009 81.4465 83.9914 74.177C83.9914 74.177 96.2704 94.6638 65.3611 99.9507C65.3611 99.9507 47.5776 95.9855 45.0371 77.4813C45.0371 77.4813 65.7845 78.8031 67.9016 81.1161C67.9016 81.1161 72.5591 78.4726 55.6225 76.1596C55.6225 76.1596 53.082 74.177 62.3972 67.8988L56.0459 67.5684L54.3523 53.6903C54.3523 53.6903 15.398 60.6294 5.65948 84.09C5.65948 84.09 -15.9347 132.663 31.9112 237.741C31.9112 237.741 63.6674 242.697 84.8382 236.749C84.8382 236.749 86.1084 221.549 83.1445 219.567L69.1718 213.289C69.1718 213.289 96.6938 175.619 88.2255 168.68C88.2255 168.68 80.1806 162.733 78.0636 159.098C78.0636 159.098 89.9192 163.724 94.5768 163.724C94.5768 163.724 100.081 146.541 110.667 134.316C110.667 134.316 85.2616 216.923 95.847 239.723C95.847 239.723 166.981 255.584 163.17 232.123C163.17 232.123 163.593 223.532 152.585 216.262C152.585 216.262 172.062 199.08 172.909 196.767C172.909 196.767 188.998 189.828 177.143 161.411C165.287 132.994 176.719 160.75 176.719 160.75C176.719 160.75 257.592 102.925 205.512 57.325C205.512 57.325 184.764 38.16 152.161 63.6032Z" fill="black"/>
<path d="M107.28 54.6815H96.271H67.0553L59.4338 52.0381C59.4338 52.0381 62.8211 61.2902 64.5148 61.951C64.5148 61.951 73.8299 62.2815 78.9109 59.638C78.9109 59.638 88.6495 65.5858 91.6134 65.9162C91.6134 65.9162 106.01 60.9597 107.28 54.6815Z" fill="black"/>
<path d="M75.0992 63.9336L72.5587 68.5596C72.5587 68.5596 70.4416 71.2031 75.0992 71.2031H78.4866V65.2553C78.4866 65.2553 76.7929 63.9336 75.9461 63.9336" fill="black"/>
<path d="M72.9846 63.9336L69.1739 69.2205L64.0929 68.5596C64.0929 68.5596 67.9037 64.264 72.9846 63.9336Z" fill="black"/>
<path d="M222.871 118.125C222.871 118.125 203.817 148.524 184.764 161.411L187.728 180.576C187.728 180.576 197.466 178.594 198.313 179.254C199.16 179.915 225.412 220.228 224.988 222.541C224.988 222.541 216.097 225.515 216.097 227.828L215.25 234.767C215.25 234.767 262.249 238.402 275.798 234.767C275.798 234.767 290.194 222.21 278.762 195.115C278.762 195.115 258.438 177.272 258.015 171.324C258.015 171.324 254.204 161.081 260.555 148.524C260.979 147.863 270.717 115.481 222.871 118.125Z" fill="black"/>
<path d="M186.883 185.532C186.883 185.532 187.306 196.767 161.055 214.94C161.055 214.94 172.91 227.827 170.37 231.792L182.225 230.471C182.225 230.471 190.27 210.645 190.27 208.662C190.27 208.662 184.343 204.367 183.496 202.054C183.496 202.054 204.667 192.141 196.622 185.532C194.505 184.541 186.883 184.541 186.883 185.532Z" fill="black"/>
</svg>
