<svg width="80" height="80" viewBox="0 0 80 80" fill="none" xmlns="http://www.w3.org/2000/svg">
<circle cx="40" cy="40" r="39" fill="white" stroke="url(#paint0_linear)" stroke-width="2"/>
<path d="M46.9347 23.6114C46.1579 23.2986 40.9516 21.8117 39.3204 24.159C39.3204 24.159 38.6985 24.7067 39.7091 26.0374C39.7091 26.0374 40.486 24.5506 41.5741 24.3938C41.7723 24.3655 42.0466 24.3529 42.3666 24.3491L42.5066 23.2199L42.7866 24.3491C44.2304 24.3624 46.2629 24.4895 47.0129 24.3158C47.0129 24.3158 46.4691 24.7067 44.4485 24.7854L44.526 26.8198L43.8591 24.8042C43.0129 24.8294 42.3529 24.8577 41.6729 25.1228L41.8066 27.6803L41.1516 25.3714C40.6754 25.6414 40.1641 26.0474 39.5535 26.6631C39.5535 26.6631 40.2529 28.6975 42.1954 28.6194C44.1379 28.5414 48.256 25.2543 48.8779 23.3766C48.8772 23.3766 47.7116 23.9249 46.9347 23.6114Z" fill="black"/>
<path d="M41.8105 16.4704C41.0224 16.7543 36.1449 19.1148 36.4674 21.9619C36.4674 21.9619 36.3624 22.7871 37.9937 23.1094C37.9937 23.1094 37.5974 21.4772 38.3093 20.6344C38.4387 20.4808 38.6362 20.2882 38.8731 20.0723L38.2356 19.1331L39.1881 19.7921C40.2781 18.8385 41.8843 17.5777 42.3318 16.9469C42.3318 16.9469 42.1818 17.6029 40.7199 19.0097L42.1168 20.482L40.2912 19.4176C39.6743 20.0011 39.1981 20.4625 38.8631 21.1153L40.6456 22.942L38.6362 21.6497C38.4574 22.1703 38.3412 22.8148 38.2887 23.6835C38.2887 23.6835 40.1512 24.741 41.5543 23.3858C42.958 22.0312 43.8805 16.8211 43.1105 15C43.1112 14.9987 42.5987 16.1865 41.8105 16.4704Z" fill="black"/>
<path d="M64.8061 35.0366C64.7286 32.8454 62.2417 30.4975 61.1542 29.2455C60.0667 27.9935 57.8911 27.4459 55.9486 27.4459C54.0061 27.4459 52.9961 29.0894 52.9961 29.0894C52.9961 29.0894 55.7936 28.385 56.5705 28.6198C57.3474 28.8546 61.2324 31.5154 62.7867 34.4109C64.3405 37.3065 62.6311 39.3409 61.8542 40.8277C61.0774 42.3145 57.8136 42.706 55.0942 42.4713C52.3749 42.2365 50.8986 40.8277 50.2768 39.5757C49.6549 38.3237 49.733 36.0545 49.733 36.0545L42.7399 41.2973C43.3618 42.3926 45.848 43.3317 47.7124 43.4885C49.5774 43.6452 52.0636 44.7405 52.763 45.2101C53.4624 45.6797 52.2968 46.3053 52.2968 46.3053C49.888 44.8966 44.4493 43.2537 43.3612 43.2537C42.2737 43.2537 37.1449 36.993 35.7468 34.9586C34.3481 32.9241 34.9699 31.2806 34.9699 29.8718C34.9699 28.4631 36.9124 24.3942 36.9124 24.3942C36.9124 24.3942 36.5237 22.4378 33.8824 24.5509C31.7412 26.2637 29.6006 29.982 28.6175 34.8295C29.6012 33.9036 30.4637 33.0809 30.4637 33.0809L28.44 35.8127C28.3025 36.648 28.1962 37.511 28.1325 38.4017C28.0843 39.0797 28.0631 39.7129 28.0625 40.3103L29.7637 38.9494L28.0693 40.8995C28.125 43.1819 28.5118 44.879 29.0037 46.2556L30.3074 44.1922L29.5125 47.5171C29.9237 48.4348 30.3525 49.2173 30.6956 49.9827C31.3049 51.3411 32.7424 53.0186 34.0262 54.3688L36.0568 52.6428L35.0618 55.427C35.6193 55.9828 36.0724 56.4146 36.2899 56.6343C37.0668 57.4167 35.9793 57.8082 35.9793 57.8082C32.4049 56.4001 27.9762 47.7141 27.9762 47.7141C27.9762 47.7141 24.0137 48.0269 22.1487 45.2101C20.2837 42.3932 21.605 38.8713 22.615 36.8369C23.625 34.8024 22.615 35.3501 22.615 35.3501C22.615 35.3501 20.75 35.6629 20.2062 35.8977C19.6625 36.1325 16.3987 40.0453 15.9325 40.5149C15.4662 40.9845 15.3887 41.7669 15.3887 41.7669L16.7094 40.5929C16.7094 40.5929 16.3206 41.7669 15.7769 42.7841C15.2331 43.8013 15 45.8358 15 45.8358L16.1656 44.1922V49.2003C15.7769 51.5482 16.1656 52.3306 16.1656 52.3306L16.9425 48.8874C16.9425 48.8874 16.9425 51.5482 16.9425 52.4087C16.9425 53.2691 18.9625 57.2606 20.905 60.5471C22.8475 63.8335 35.5124 64.225 38.1543 63.9122C40.7649 63.6031 48.7605 58.862 52.848 55.1248L49.1105 55.6951L54.3955 53.5002C55.1086 52.6485 55.7792 51.7081 56.393 50.7544L53.3836 52.0171C53.4936 51.9435 55.1692 50.9508 56.913 49.921C58.8774 46.6862 60.143 43.5659 60.143 43.5659C60.143 43.5659 63.0955 41.9224 64.2611 40.2008C65.4273 38.4798 64.8836 37.2278 64.8061 35.0366Z" fill="black"/>
<path d="M54.3942 32.063C54.7805 32.063 55.0936 31.7477 55.0936 31.3587C55.0936 30.9697 54.7805 30.6543 54.3942 30.6543C54.0079 30.6543 53.6948 30.9697 53.6948 31.3587C53.6948 31.7477 54.0079 32.063 54.3942 32.063Z" fill="black"/>
<path d="M59.8338 37.5404C60.2628 37.5404 60.6106 37.1901 60.6106 36.758C60.6106 36.3259 60.2628 35.9756 59.8338 35.9756C59.4047 35.9756 59.0569 36.3259 59.0569 36.758C59.0569 37.1901 59.4047 37.5404 59.8338 37.5404Z" fill="black"/>
<path d="M54.3947 41.4534C55.4047 41.5314 59.2122 41.3753 60.2997 40.827C61.3872 40.2794 62.7859 38.6359 62.4753 37.1491C62.1647 35.6623 61.3097 32.5319 59.3672 31.2799C57.4247 30.0279 55.9485 29.4016 55.1716 29.4016C54.3947 29.4016 53.0735 29.3235 52.4522 30.1059C52.4522 30.1059 51.5972 30.6536 51.2091 33.0015C50.8204 35.3494 50.3541 37.1491 51.0535 38.6359C51.7528 40.1233 53.3847 41.3753 54.3947 41.4534ZM54.9385 30.4194C56.1041 31.4366 56.026 32.2191 55.6378 32.8454C55.2491 33.4717 54.7828 34.0193 54.7828 34.0193L54.2391 34.1761L53.5397 33.7065L53.2291 34.1761L53.3847 35.9757C53.3847 35.9757 54.1616 37.7754 55.2497 37.9321C56.3372 38.0889 57.1147 38.0889 57.1147 37.7754C57.1147 37.4619 56.8816 36.8362 57.4253 36.3666C57.9691 35.8971 59.6784 35.0366 60.2228 35.5055C60.7666 35.9751 61.3884 38.4791 60.8447 39.0268C60.3009 39.5744 60.3784 39.4964 59.9122 39.0268C59.4459 38.5572 58.436 36.4441 58.436 36.4441C58.436 36.4441 57.581 36.4441 57.581 37.1484C57.581 37.8528 58.1247 38.2437 57.3478 38.5572C56.571 38.87 54.3178 38.4004 53.9291 38.0095C53.5403 37.618 52.9966 36.8356 52.9191 36.0532C52.8416 35.2707 52.5303 34.4883 52.7635 34.0187C52.9966 33.5491 53.3072 32.688 53.6185 33.0796C53.9291 33.4705 54.2403 34.0187 54.6285 33.6272C55.0172 33.2363 55.2503 32.61 55.2503 32.61C55.2503 32.61 53.6185 32.2971 52.531 31.358C52.5297 31.3586 53.7728 29.4022 54.9385 30.4194ZM56.8035 36.5234L56.1041 37.2277C56.1041 37.2277 54.861 36.993 54.1616 35.9757C53.4622 34.9585 54.861 34.4889 54.861 34.4889C55.9485 35.0366 56.8035 36.5234 56.8035 36.5234Z" fill="black"/>
<defs>
<linearGradient id="paint0_linear" x1="-3.5443" y1="11.8519" x2="92.9047" y2="54.7202" gradientUnits="userSpaceOnUse">
<stop stop-color="#F9804B"/>
<stop offset="1" stop-color="#FE9013"/>
</linearGradient>
</defs>
</svg>
