<svg width="50" height="50" viewBox="0 0 50 50" fill="none" xmlns="http://www.w3.org/2000/svg">
<path d="M31.9347 9.38325C31.1579 9.07167 25.9516 7.5909 24.3204 9.92867C24.3204 9.92867 23.6985 10.4741 24.7091 11.7994C24.7091 11.7994 25.486 10.3186 26.5741 10.1625C26.7722 10.1343 27.0466 10.1218 27.3666 10.118L27.5066 8.99331L27.7866 10.118C29.2304 10.1312 31.2629 10.2578 32.0128 10.0848C32.0128 10.0848 31.4691 10.4741 29.4485 10.5524L29.526 12.5786L28.8591 10.5713C28.0129 10.5963 27.3529 10.6245 26.6729 10.8885L26.8066 13.4356L26.1516 11.1361C25.6754 11.4051 25.1641 11.8094 24.5535 12.4225C24.5535 12.4225 25.2529 14.4487 27.1954 14.371C29.1379 14.2933 33.256 11.0195 33.8778 9.14941C33.8772 9.14941 32.7116 9.69546 31.9347 9.38325Z" fill="black"/>
<path d="M26.8105 2.27202C26.0224 2.55474 21.1449 4.90556 21.4674 7.74095C21.4674 7.74095 21.3624 8.5628 22.9937 8.88376C22.9937 8.88376 22.5974 7.25825 23.3093 6.41885C23.4387 6.2659 23.6362 6.07407 23.8731 5.85905L23.2356 4.92374L24.1881 5.58008C25.278 4.63035 26.8843 3.37471 27.3318 2.74657C27.3318 2.74657 27.1818 3.39978 25.7199 4.80087L27.1168 6.26715L25.2912 5.20709C24.6743 5.78821 24.1981 6.24772 23.8631 6.89779L25.6455 8.71701L23.6362 7.43002C23.4574 7.94845 23.3412 8.59038 23.2887 9.45548C23.2887 9.45548 25.1512 10.5086 26.5543 9.15896C27.958 7.80991 28.8805 2.62119 28.1105 0.807618C28.1112 0.806364 27.5987 1.98929 26.8105 2.27202Z" fill="black"/>
<path d="M49.8061 20.7621C49.7286 18.5799 47.2417 16.2416 46.1542 14.9947C45.0667 13.7478 42.8911 13.2024 40.9486 13.2024C39.0061 13.2024 37.9961 14.8393 37.9961 14.8393C37.9961 14.8393 40.7936 14.1378 41.5705 14.3716C42.3474 14.6054 46.2324 17.2553 47.7867 20.139C49.3405 23.0227 47.6311 25.0488 46.8542 26.5295C46.0774 28.0102 42.8136 28.4002 40.0942 28.1663C37.3749 27.9325 35.8986 26.5295 35.2768 25.2826C34.6549 24.0358 34.733 21.7758 34.733 21.7758L27.7399 26.9972C28.3618 28.088 30.848 29.0233 32.7124 29.1794C34.5774 29.3355 37.0636 30.4263 37.763 30.8939C38.4624 31.3616 37.2968 31.9847 37.2968 31.9847C34.888 30.5818 29.4493 28.9456 28.3612 28.9456C27.2737 28.9456 22.1449 22.7105 20.7468 20.6844C19.3481 18.6583 19.9699 17.0215 19.9699 15.6185C19.9699 14.2155 21.9124 10.1633 21.9124 10.1633C21.9124 10.1633 21.5237 8.2149 18.8824 10.3194C16.7412 12.0251 14.6006 15.7282 13.6175 20.5559C14.6012 19.6337 15.4637 18.8144 15.4637 18.8144L13.44 21.5351C13.3025 22.367 13.1962 23.2264 13.1325 24.1135C13.0843 24.7887 13.0631 25.4193 13.0625 26.0142L14.7637 24.6589L13.0693 26.601C13.125 28.8741 13.5118 30.5642 14.0037 31.9352L15.3074 29.8803L14.5125 33.1915C14.9237 34.1055 15.3525 34.8847 15.6956 35.647C16.3049 36.9999 17.7424 38.6705 19.0262 40.0152L21.0568 38.2963L20.0618 41.069C20.6193 41.6226 21.0724 42.0526 21.2899 42.2714C22.0668 43.0506 20.9793 43.4405 20.9793 43.4405C17.4049 42.0382 12.9762 33.3877 12.9762 33.3877C12.9762 33.3877 9.01372 33.6993 7.14873 30.8939C5.28373 28.0886 6.60498 24.5812 7.61498 22.555C8.62497 20.5289 7.61498 21.0743 7.61498 21.0743C7.61498 21.0743 5.74998 21.3859 5.20623 21.6197C4.66248 21.8535 1.39875 25.7503 0.932497 26.218C0.466248 26.6856 0.388749 27.4648 0.388749 27.4648L1.70937 26.2957C1.70937 26.2957 1.32062 27.4648 0.776872 28.4779C0.233124 29.491 0 31.5171 0 31.5171L1.16562 29.8803V34.8678C0.776872 37.2061 1.16562 37.9853 1.16562 37.9853L1.94249 34.5562C1.94249 34.5562 1.94249 37.2061 1.94249 38.0631C1.94249 38.92 3.96249 42.8951 5.90498 46.1681C7.84747 49.4411 20.5124 49.8311 23.1543 49.5195C25.7649 49.2117 33.7605 44.49 37.848 40.7681L34.1105 41.3361L39.3955 39.1501C40.1086 38.3019 40.7792 37.3653 41.393 36.4156L38.3836 37.6731C38.4936 37.5998 40.1692 36.6112 41.913 35.5856C43.8774 32.364 45.143 29.2565 45.143 29.2565C45.143 29.2565 48.0955 27.6197 49.2611 25.9051C50.4273 24.1912 49.8836 22.9443 49.8061 20.7621Z" fill="black"/>
<path d="M39.3942 17.8007C39.7804 17.8007 40.0936 17.4867 40.0936 17.0993C40.0936 16.712 39.7804 16.3979 39.3942 16.3979C39.0079 16.3979 38.6948 16.712 38.6948 17.0993C38.6948 17.4867 39.0079 17.8007 39.3942 17.8007Z" fill="black"/>
<path d="M44.8338 23.2561C45.2628 23.2561 45.6106 22.9073 45.6106 22.4769C45.6106 22.0466 45.2628 21.6978 44.8338 21.6978C44.4047 21.6978 44.0569 22.0466 44.0569 22.4769C44.0569 22.9073 44.4047 23.2561 44.8338 23.2561Z" fill="black"/>
<path d="M39.3947 27.1526C40.4047 27.2304 44.2122 27.0749 45.2997 26.5289C46.3872 25.9835 47.786 24.3466 47.4753 22.8659C47.1647 21.3852 46.3097 18.2676 44.3672 17.0208C42.4247 15.7739 40.9485 15.1501 40.1716 15.1501C39.3947 15.1501 38.0735 15.0724 37.4522 15.8516C37.4522 15.8516 36.5972 16.397 36.2091 18.7353C35.8204 21.0736 35.3541 22.8659 36.0535 24.3466C36.7528 25.828 38.3847 27.0749 39.3947 27.1526ZM39.9385 16.1638C41.1041 17.1769 41.026 17.9561 40.6378 18.5798C40.2491 19.2036 39.7828 19.749 39.7828 19.749L39.2391 19.9051L38.5397 19.4374L38.2291 19.9051L38.3847 21.6974C38.3847 21.6974 39.1616 23.4897 40.2497 23.6458C41.3372 23.8019 42.1147 23.8019 42.1147 23.4897C42.1147 23.1775 41.8816 22.5544 42.4253 22.0867C42.9691 21.619 44.6785 20.7621 45.2228 21.2291C45.7666 21.6968 46.3885 24.1905 45.8447 24.7359C45.301 25.2813 45.3785 25.2036 44.9122 24.7359C44.446 24.2683 43.436 22.1638 43.436 22.1638C43.436 22.1638 42.581 22.1638 42.581 22.8653C42.581 23.5668 43.1247 23.9561 42.3478 24.2683C41.571 24.5798 39.3178 24.1122 38.9291 23.7229C38.5403 23.333 37.9966 22.5537 37.9191 21.7745C37.8416 20.9953 37.5303 20.216 37.7635 19.7484C37.9966 19.2807 38.3072 18.4231 38.6185 18.813C38.9291 19.2023 39.2403 19.7484 39.6285 19.3584C40.0172 18.9691 40.2503 18.3454 40.2503 18.3454C40.2503 18.3454 38.6185 18.0338 37.531 17.0985C37.5297 17.0991 38.7728 15.1507 39.9385 16.1638ZM41.8035 22.2428L41.1041 22.9443C41.1041 22.9443 39.861 22.7105 39.1616 21.6974C38.4622 20.6843 39.861 20.2167 39.861 20.2167C40.9485 20.7621 41.8035 22.2428 41.8035 22.2428Z" fill="black"/>
</svg>
